<svg width="34" height="34" viewBox="0 0 34 34" fill="none" xmlns="http://www.w3.org/2000/svg">
<path d="M17 33.9999C14.4297 34.0071 11.8919 33.4256 9.58128 32.2999C8.73562 31.8885 7.92537 31.4081 7.1588 30.8634L6.9259 30.6934C4.81761 29.1372 3.09392 27.1187 1.88715 24.7927C0.638915 22.3853 -0.00848753 19.7117 8.40181e-05 16.9999C8.40181e-05 7.61113 7.61126 0 17 0C26.3888 0 33.9999 7.61113 33.9999 16.9999C34.0084 19.7104 33.3616 22.3827 32.1146 24.7893C30.9095 27.1139 29.1882 29.1318 27.0826 30.6883C26.2883 31.2697 25.4454 31.7816 24.5632 32.2183L24.4272 32.2863C22.1151 33.418 19.5742 34.0042 17 33.9999ZM17 25.4999C14.4525 25.4949 12.1171 26.9177 10.9532 29.1838C14.7635 31.0711 19.2365 31.0711 23.0468 29.1838V29.1753C21.8815 26.9117 19.5459 25.4921 17 25.4999ZM17 22.0999C20.6824 22.1047 24.0777 24.0891 25.8892 27.2951L25.9147 27.273L25.9385 27.2526L25.9096 27.2781L25.8926 27.2917C30.1919 23.5774 31.7292 17.5819 29.7476 12.2571C27.766 6.93236 22.6832 3.40052 17.0017 3.40052C11.3202 3.40052 6.2374 6.93236 4.25582 12.2571C2.27425 17.5819 3.81154 23.5774 8.11079 27.2917C9.92341 24.0873 13.3185 22.1044 17 22.0999ZM17 20.3999C13.2445 20.3999 10.2001 17.3555 10.2001 13.5999C10.2001 9.84442 13.2445 6.79997 17 6.79997C20.7555 6.79997 23.7999 9.84442 23.7999 13.5999C23.7999 15.4034 23.0835 17.133 21.8083 18.4083C20.533 19.6835 18.8035 20.3999 17 20.3999ZM17 10.2C15.1223 10.2 13.6 11.7222 13.6 13.5999C13.6 15.4777 15.1223 16.9999 17 16.9999C18.8778 16.9999 20.4 15.4777 20.4 13.5999C20.4 11.7222 18.8778 10.2 17 10.2Z" fill="white"/>
</svg>
